HIERARCHY
ROOT Bip001_Pelvis
{
  OFFSET -1.81647 95.4634 -9.87528
  CHANNELS 6 Xposition Yposition Zposition Zrotation Xrotation Yrotation
  JOINT Bip001_Spine
  {
    OFFSET 1.44608e-005 10.4157 -0.0118244
    CHANNELS 3 Zrotation Xrotation Yrotation
    JOINT Bip001_L_Thigh
    {
      OFFSET 11.2582 -10.4157 0.0118432
      CHANNELS 3 Zrotation Xrotation Yrotation
      JOINT Bip001_L_Calf
      {
        OFFSET -0.720717 -44.8687 0.366937
        CHANNELS 3 Zrotation Xrotation Yrotation
        JOINT Bip001_L_Foot
        {
          OFFSET -0.664439 -41.3745 -3.62995
          CHANNELS 3 Zrotation Xrotation Yrotation
          JOINT Bip001_L_Toe0
          {
            OFFSET 0.0541047 -10.4146 13.4033
            CHANNELS 3 Zrotation Xrotation Yrotation
            End Site
            {
              OFFSET -1.04503e-005 0 7.70137
            }
          }
        }
      }
    }
    JOINT Bip001_R_Thigh
    {
      OFFSET -11.2582 -10.4156 0.0118122
      CHANNELS 3 Zrotation Xrotation Yrotation
      JOINT Bip001_R_Calf
      {
        OFFSET 0.72059 -44.8687 0.36676
        CHANNELS 3 Zrotation Xrotation Yrotation
        JOINT Bip001_R_Foot
        {
          OFFSET 0.664321 -41.3745 -3.62979
          CHANNELS 3 Zrotation Xrotation Yrotation
          JOINT Bip001_R_Toe0
          {
            OFFSET -0.05417 -10.4146 13.4033
            CHANNELS 3 Zrotation Xrotation Yrotation
            End Site
            {
              OFFSET -1.04873e-005 0 7.70137
            }
          }
        }
      }
    }
    JOINT Bip001_Spine1
    {
      OFFSET 1.90638e-005 14.8539 1.10727
      CHANNELS 3 Zrotation Xrotation Yrotation
      JOINT Bip001_Spine2
      {
        OFFSET 2.28934e-005 14.7848 -1.7233
        CHANNELS 3 Zrotation Xrotation Yrotation
        JOINT Bip001_Neck
        {
          OFFSET 2.24514e-005 15.6905 -0.498826
          CHANNELS 3 Zrotation Xrotation Yrotation
          JOINT Bip001_L_Clavicle
          {
            OFFSET 6.17691 -0.000591152 0.00852867
            CHANNELS 3 Zrotation Xrotation Yrotation
            JOINT Bip001_L_UpperArm
            {
              OFFSET 11.773 -0.0611878 0.00197697
              CHANNELS 3 Zrotation Xrotation Yrotation
              JOINT Bip001_L_Forearm
              {
                OFFSET 26.4514 0.0817568 -2.19579
                CHANNELS 3 Zrotation Xrotation Yrotation
                JOINT Bip001_L_Hand
                {
                  OFFSET 32.8677 0.156744 1.67112
                  CHANNELS 3 Zrotation Xrotation Yrotation
                  JOINT Bip001_L_Finger0
                  {
                    OFFSET 6.16267 -2.25226 6.01674
                    CHANNELS 3 Zrotation Xrotation Yrotation
                    End Site
                    {
                      OFFSET 4.30498 -1.46663 0.618148
                    }
                  }
                  JOINT Bip001_L_Finger1
                  {
                    OFFSET 11.2957 -0.718374 -0.201963
                    CHANNELS 3 Zrotation Xrotation Yrotation
                    End Site
                    {
                      OFFSET 6.31952 -0.405163 -0.0802303
                    }
                  }
                }
              }
            }
          }
          JOINT Bip001_R_Clavicle
          {
            OFFSET -6.17691 -0.000574027 0.00851165
            CHANNELS 3 Zrotation Xrotation Yrotation
            JOINT Bip001_R_UpperArm
            {
              OFFSET -11.773 -0.0611516 0.00194365
              CHANNELS 3 Zrotation Xrotation Yrotation
              JOINT Bip001_R_Forearm
              {
                OFFSET -26.4514 0.0822336 -2.19736
                CHANNELS 3 Zrotation Xrotation Yrotation
                JOINT Bip001_R_Hand
                {
                  OFFSET -32.8677 0.156816 1.67144
                  CHANNELS 3 Zrotation Xrotation Yrotation
                  JOINT Bip001_R_Finger0
                  {
                    OFFSET -6.16269 -2.25224 6.01673
                    CHANNELS 3 Zrotation Xrotation Yrotation
                    End Site
                    {
                      OFFSET -4.30499 -1.46661 0.618137
                    }
                  }
                  JOINT Bip001_R_Finger1
                  {
                    OFFSET -11.2957 -0.718342 -0.201995
                    CHANNELS 3 Zrotation Xrotation Yrotation
                    End Site
                    {
                      OFFSET -6.31952 -0.405145 -0.0802479
                    }
                  }
                }
              }
            }
          }
          JOINT Bip001_Head
          {
            OFFSET 1.11782e-005 11.4912 2.09908
            CHANNELS 3 Zrotation Xrotation Yrotation
            End Site
            {
              OFFSET 2.95144e-005 21.2823 -2.83069e-005
            }
          }
        }
      }
    }
  }
}
MOTION
Frames:	14
Frame Time:	0.0333333
-1.81647 95.4634 -9.87528 -0.0887107 -6.64805 1.99976 -0.498265 3.00767 0.427956 0.311948 -3.00273 -8.17451 -0.0331186 11.6074 -0.180986 0.765508 -5.0578 4.92323 -2.95167e-010 1.22923e-008 -1.06843e-007 0.390325 -4.62388 3.78321 0.00783272 10.4975 0.167207 -1.54619 -2.64581 -7.45701 4.25816e-007 1.61821e-007 1.07801e-007 -0.132205 6.03963 0.758344 -0.131977 6.04009 0.754564 3.06639 6.43968 -2.33276 -31.2817 -3.08377 -8.3942 -41.6093 51.3261 -10.3454 -2.21999 0.521644 -22.861 5.31113 10.8742 2.12232 4.77083e-015 9.54166e-015 -0 4.77083e-015 3.18056e-015 1.59028e-015 22.1581 -5.0922 1.09772 47.0119 49.0408 12.0702 1.63607 0.267365 16.5379 -5.18503 -6.9488 -5.58734 -2.38542e-015 0 -2.38542e-015 1.32417e-031 3.18056e-015 -2.38542e-015 -0.213681 -12.3713 -1.25051 
-1.81351 95.4599 -9.82973 -0.0982163 -6.61083 1.92849 -0.507824 3.00051 0.479174 0.346626 -2.96445 -8.1355 -0.03321 11.5791 -0.180968 0.820083 -5.06961 5.09417 -2.95167e-010 1.22923e-008 -1.06843e-007 0.387405 -4.63955 3.70235 0.00774727 10.5263 0.167223 -1.54329 -2.64721 -7.3914 4.25816e-007 1.61821e-007 1.07801e-007 -0.187796 6.00505 0.863872 -0.187557 6.00555 0.860227 3.23954 6.27589 -2.52614 -31.4359 -3.09475 -7.9794 -42.1016 49.4344 -9.76491 -2.29905 0.558644 -23.7306 4.40364 12.8626 2.73033 -3.18055e-015 -3.18055e-015 7.95139e-016 -3.18055e-015 0 -0 21.8699 -4.85695 1.30189 47.9665 47.4439 11.1181 1.67866 0.300448 17.039 -5.48514 -5.44594 -5.79933 -7.95139e-016 -3.18055e-015 7.95139e-016 -7.95139e-016 3.18056e-015 -7.95139e-016 0.14973 -12.1901 -1.50749 
-1.79599 95.4655 -9.77611 -0.105024 -6.54787 1.77654 -0.543358 2.98599 0.590245 0.370502 -2.88804 -8.14219 -0.0335814 11.4638 -0.180894 0.848639 -5.08118 5.21124 -2.95167e-010 1.22923e-008 -1.06843e-007 0.389405 -4.69783 3.63538 0.00767448 10.5508 0.167236 -1.54363 -2.67335 -7.32711 4.25816e-007 1.61821e-007 1.07801e-007 -0.278281 5.9756 1.09066 -0.278058 5.97624 1.08705 3.55383 6.1457 -2.82014 -31.8203 -3.16858 -7.57563 -42.2943 47.2287 -9.39774 -2.37911 0.597624 -24.6167 3.66318 15.0047 3.20329 0 0 -0 -1.59028e-015 3.18056e-015 1.59028e-015 21.5015 -4.62948 1.59168 48.7996 46.9478 10.199 1.69909 0.312703 17.272 -6.2207 -4.86735 -5.60311 -7.95139e-016 -6.36111e-015 -1.59028e-015 2.38542e-015 -6.36111e-015 -2.38542e-015 0.296938 -11.8603 -1.8859 
-1.76289 95.4692 -9.66073 -0.0741347 -6.59229 1.59671 -0.552757 3.06731 0.753534 0.360733 -2.71625 -7.90487 -0.0342063 11.2697 -0.180771 0.859687 -4.97982 4.96863 -2.95167e-010 1.22923e-008 -1.06843e-007 0.305593 -4.69513 3.3767 0.00765817 10.5563 0.167239 -1.55206 -2.67857 -7.10836 4.25816e-007 1.61821e-007 1.07801e-007 -0.357083 6.13749 1.42394 -0.356909 6.13828 1.42048 3.65793 5.23412 -3.15899 -32.0959 -2.59198 -6.73773 -41.7893 45.2046 -9.72844 -2.45405 0.635567 -25.4533 3.14921 16.6517 3.36171 1.59028e-015 -9.54166e-015 3.18055e-015 3.53113e-031 -6.36111e-015 3.18055e-015 21.2791 -3.71329 1.43255 48.8971 48.1227 9.68398 1.75258 0.333036 17.8404 -7.21817 -6.37686 -5.61573 2.38542e-015 0 -0 2.38542e-015 3.18056e-015 -7.95139e-016 0.606121 -12.0523 -2.44149 
-1.79664 95.4649 -9.70986 -0.14841 -6.39826 1.76926 -0.584811 3.0797 0.871359 0.375865 -3.06097 -8.74293 -0.0335892 11.4614 -0.180892 0.807132 -5.02734 5.30993 -2.95167e-010 1.22923e-008 -1.06843e-007 0.423719 -4.93357 3.23923 0.00767104 10.552 0.167237 -1.5706 -2.6599 -7.24012 4.25816e-007 1.61821e-007 1.07801e-007 -0.36178 6.16237 1.65567 -0.361556 6.16336 1.65188 3.83934 4.8024 -3.56881 -32.4189 -2.45116 -6.16818 -41.396 44.4756 -9.9258 -2.50224 0.660668 -25.9934 3.36946 17.023 3.25035 3.18055e-015 -3.18055e-015 7.95139e-016 -1.76556e-031 3.18056e-015 3.18055e-015 20.9697 -3.18822 1.6456 49.3543 48.4328 9.11944 1.75765 0.337062 17.8871 -7.62753 -7.51282 -5.55217 7.95139e-016 -3.18055e-015 -0 7.95139e-016 3.18056e-015 7.95139e-016 1.12477 -12.5047 -3.02509 
-1.75951 95.4934 -9.62597 -0.109264 -6.33852 1.75944 -0.626837 3.10876 1.03352 0.372671 -2.98478 -8.76098 -0.0340321 11.3238 -0.180805 0.851403 -5.29376 5.05229 -2.95167e-010 1.22923e-008 -1.06843e-007 0.356937 -4.97525 2.98351 0.00763558 10.5639 0.167243 -1.60962 -2.77463 -7.29939 4.25816e-007 1.61821e-007 1.07801e-007 -0.48043 6.2189 1.98634 -0.480231 6.22007 1.98262 4.05338 4.54784 -3.99418 -32.5854 -2.46945 -5.68768 -41.1917 44.8484 -10.0167 -2.52127 0.669775 -26.2233 4.21213 16.2319 2.90194 0 0 -3.18055e-015 -1.59028e-015 0 -1.59028e-015 20.8024 -2.75153 2.1471 49.841 47.6077 8.42587 1.74498 0.331426 17.7642 -7.01214 -7.68858 -5.54158 1.59028e-015 0 -0 7.95139e-016 0 -0 1.52816 -13.1507 -3.79888 
-1.78426 95.4903 -9.61217 -0.161228 -6.09443 2.06698 -0.680635 3.12474 1.14252 0.529233 -3.35907 -8.69766 -0.027725 11.506 -0.110684 0.856956 -5.20013 5.16976 -2.95167e-010 1.22923e-008 -1.06843e-007 0.457114 -5.19868 2.59979 0.013544 10.5384 0.237579 -1.5942 -2.75188 -7.18528 4.25816e-007 1.61821e-007 1.07801e-007 -0.544426 6.24998 2.20666 -0.544215 6.25135 2.20274 4.27471 4.20941 -4.48246 -32.7317 -2.44184 -5.14032 -40.6118 45.7155 -10.4371 -2.51989 0.670717 -26.2505 5.33244 14.8628 2.31734 -3.18055e-015 -6.36111e-015 7.15625e-015 -4.77083e-015 0 6.36111e-015 20.6871 -2.19714 2.72295 50.1716 48.0244 7.88198 1.71526 0.317944 17.4412 -6.98234 -9.17019 -5.2464 -0 -6.36111e-015 -0 7.95139e-016 -6.36111e-015 7.95139e-016 2.88869 -13.7176 -5.02961 
-1.82052 95.5032 -9.60326 -0.195044 -5.70951 2.36939 -0.744719 3.12863 1.24978 0.700942 -3.73824 -8.79377 -0.0196789 11.4703 0.00413293 0.57056 -5.32751 4.52424 -2.95167e-010 1.22923e-008 -1.06843e-007 0.545238 -5.53595 2.3713 0.0190763 10.4751 0.338658 -1.58427 -2.69682 -7.45652 4.25816e-007 1.61821e-007 1.07801e-007 -0.607227 6.25629 2.4348 -0.607016 6.25797 2.43056 4.44029 3.8855 -5.06435 -33.0062 -2.46105 -4.57096 -39.6316 46.5146 -11.0781 -2.51834 0.671927 -26.1695 5.72129 13.7426 2.15753 0 0 -0 0 0 -0 20.378 -1.63235 3.43338 50.6441 50.2028 7.28529 1.68483 0.30784 17.1222 -7.53613 -12.0892 -5.03861 -7.95139e-016 3.18055e-015 7.95139e-016 -7.95139e-016 3.18056e-015 1.59028e-015 3.36562 -14.5121 -7.06351 
-1.7562 95.5492 -9.61584 -0.105534 -5.07465 2.58388 -0.754366 3.0973 1.28983 0.686675 -4.18477 -8.44117 -0.0161678 11.1349 0.124123 0.296376 -5.4128 3.78521 -2.95167e-010 1.22923e-008 -1.06843e-007 0.397126 -6.06636 2.40001 0.022882 10.349 0.43111 -1.57545 -2.60452 -7.85798 4.25816e-007 1.61821e-007 1.07801e-007 -0.68917 6.19069 2.55771 -0.688968 6.19233 2.55375 3.79165 3.59938 -5.55158 -33.0075 -2.42813 -3.99163 -38.2923 46.2589 -11.4984 -2.53212 0.676622 -26.33 5.43456 13.3116 2.07958 3.18055e-015 -3.18055e-015 1.59028e-015 1.59028e-015 -3.18056e-015 1.59028e-015 20.3556 -1.08705 4.16748 51.1759 52.4866 7.09047 1.62091 0.286387 16.4508 -7.80981 -14.6038 -4.80882 1.19271e-015 0 -3.97569e-016 7.95139e-016 3.18056e-015 -3.97569e-016 2.88209 -15.4006 -10.588 
-1.76629 95.5848 -9.49019 -0.0950786 -4.69853 2.90715 -0.753478 3.109 1.22314 0.980351 -4.4557 -6.7667 -0.0122114 11.0149 0.238177 0.166437 -5.65104 2.15552 -2.95167e-010 1.22923e-008 -1.06843e-007 0.383235 -6.18161 2.40427 0.0268448 10.0413 0.511944 -1.65748 -2.42668 -8.30202 4.25816e-007 1.61821e-007 1.07801e-007 -0.703717 6.21212 2.46665 -0.703519 6.21367 2.46276 2.75103 3.72484 -6.26708 -32.2948 -2.86626 -3.32966 -37.9605 45.8903 -11.249 -2.57069 0.697277 -26.7655 4.63647 12.0937 2.37585 1.59028e-015 3.18055e-015 -3.18055e-015 -1.59028e-015 -3.18056e-015 -1.59028e-015 20.4928 -0.833129 5.28557 51.865 54.0369 7.26721 1.55024 0.263589 15.7113 -6.91277 -15.9539 -4.59281 -3.86217e-031 1.59028e-014 1.39149e-015 -3.97569e-016 1.59028e-014 5.96354e-016 1.88244 -17.9973 -15.9024 
-1.86782 95.566 -9.53646 -0.138566 -4.05548 3.70854 -0.822596 3.0608 1.04693 1.29942 -5.43025 -5.856 -0.00668503 11.4962 0.343015 0.0360226 -6.01554 0.895272 -2.95167e-010 1.22923e-008 -1.06843e-007 0.62005 -6.79703 2.73489 0.0295803 10.1662 0.591719 -1.66596 -2.299 -9.09598 4.25816e-007 1.61821e-007 1.07801e-007 -0.810613 6.11306 2.16973 -0.810394 6.11447 2.16577 3.06981 3.93082 -8.08229 -32.0873 -4.03853 -1.89591 -38.0856 45.9508 -11.0204 -2.60924 0.718492 -27.2037 3.21244 10.3978 2.79972 3.53112e-031 6.36111e-015 -3.18055e-015 -3.18055e-015 3.18056e-015 7.95139e-016 20.0434 -0.449191 7.11606 52.3371 53.956 7.57019 1.48475 0.242015 15.0253 -6.16845 -15.2645 -4.32525 -5.96354e-016 6.36111e-015 -0 -5.96354e-016 0 -1.98785e-016 1.01845 -21.3059 -22.6227 
-1.91828 95.543 -9.49122 -0.143387 -3.54908 4.31624 -0.91289 3.05954 0.866309 1.65141 -6.12428 -4.26922 -0.00182259 11.7527 0.449678 -0.0164437 -6.08632 -0.868317 -2.95167e-010 1.22923e-008 -1.06843e-007 0.807207 -7.38575 2.95636 0.0315616 10.5137 0.668617 -1.63891 -2.3799 -9.42763 4.25816e-007 1.61821e-007 1.07801e-007 -1.04583 6.1064 1.8802 -1.04561 6.10755 1.87651 3.87693 4.27329 -10.8769 -31.923 -5.89524 0.316391 -38.0927 45.3246 -11.1301 -2.63947 0.73537 -27.5483 1.4647 10.9642 3.23609 1.59028e-015 -3.18055e-015 2.38542e-015 -0 0 7.95139e-016 19.654 0.0761421 9.75796 52.3061 52.2726 8.04498 1.45922 0.227338 14.7426 -4.95743 -12.9822 -4.19991 3.97569e-016 -3.18055e-015 4.96962e-016 1.98785e-016 0 9.93923e-017 -1.82673 -23.5116 -29.7081 
-2.0205 95.5237 -9.48471 -0.189227 -2.98669 5.02619 -0.987071 3.07907 0.60171 1.85253 -6.96146 -3.98575 0.00331488 12.041 0.557636 -0.160979 -6.19866 -1.50693 -2.95167e-010 1.22923e-008 -1.06843e-007 0.975602 -7.97914 2.89581 0.0333828 10.7347 0.737151 -1.68749 -2.3736 -9.90374 4.25816e-007 1.61821e-007 1.07801e-007 -1.14874 6.14252 1.42031 -1.14851 6.14341 1.41644 4.71848 4.89538 -14.5566 -32.0347 -8.5051 3.12814 -37.36 43.8006 -11.7076 -2.68619 0.761834 -28.0827 -0.624078 12.8874 3.994 1.59028e-015 6.36111e-015 -0 8.82782e-032 6.36111e-015 -7.95139e-016 18.8287 0.514768 13.5193 52.5271 50.3923 8.42205 1.46126 0.226884 14.7628 -4.32519 -11.1147 -4.35102 2.98177e-016 3.18055e-015 -5.96354e-016 4.47265e-016 3.18056e-015 -5.46658e-016 -3.58795 -23.4358 -35.8202 
-2.1338 95.5427 -9.47096 -0.284261 -2.45258 5.60592 -1.0335 3.13328 0.317582 1.98104 -7.63244 -4.40273 0.0075904 12.0308 0.67124 -0.305684 -6.33176 -1.30825 -2.95167e-010 1.22923e-008 -1.06843e-007 1.20336 -8.50675 3.21172 0.0353932 10.811 0.798711 -1.75092 -2.50869 -10.723 4.25816e-007 1.61821e-007 1.07801e-007 -1.18168 6.2487 0.925237 -1.18139 6.24932 0.921075 5.92291 5.38092 -19.263 -32.2999 -11.6631 6.76524 -36.3165 43.4048 -12.6441 -2.73448 0.789876 -28.6378 -1.67286 14.5713 4.87617 -3.18055e-015 0 1.59028e-015 -3.18055e-015 3.18056e-015 7.95139e-016 17.3228 1.07014 18.3018 52.972 50.1385 8.51057 1.49017 0.242287 15.0799 -5.3234 -10.8704 -4.25432 -1.32417e-031 9.54166e-015 7.95139e-016 -9.93923e-016 6.36111e-015 5.96354e-016 -2.7561 -21.6608 -39.8008 
